<?xml version="1.0" encoding="utf-8"?>
<svg width="202px" height="201px" viewBox="0 0 202 201" version="1.1" xmlns:xlink="http://www.w3.org/1999/xlink" xmlns="http://www.w3.org/2000/svg">
  <defs>
    <linearGradient x1="0" y1="0" x2="1" y2="1" id="gradient_1">
      <stop offset="0" stop-color="#403DDF" />
      <stop offset="1" stop-color="#4E13BD" />
    </linearGradient>
    <filter id="filter_1">
      <feColorMatrix in="SourceGraphic" type="matrix" values="0 0 0 0 0.7372549 0 0 0 0 0.6509804 0 0 0 0 1 0 0 0 1 0" />
    </filter>
    <rect width="202" height="200.5" id="artboard_1" />
    <clipPath id="clip_1">
      <use xlink:href="#artboard_1" clip-rule="evenodd" />
    </clipPath>
  </defs>
  <g id="Artboard" clip-path="url(#clip_1)">
    <use xlink:href="#artboard_1" stroke="none" fill="#FFFFFF" fill-opacity="0" />
    <g id="EARS" transform="translate(16.408203 37)" filter="url(#filter_1)">
      <path d="M0 36.7449C0 16.4512 15.8185 0 35.3316 0C54.8447 0 70.6633 16.4512 70.6633 36.7449C70.6633 57.0385 54.8447 73.4898 35.3316 73.4898C15.8185 73.4898 0 57.0385 0 36.7449Z" id="Ellipse-2" fill="#786E6E" fill-rule="evenodd" stroke="none" />
      <path d="M0 36.7449C0 16.4512 15.8185 0 35.3316 0C54.8447 0 70.6632 16.4512 70.6632 36.7449C70.6632 57.0385 54.8447 73.4898 35.3316 73.4898C15.8185 73.4898 0 57.0385 0 36.7449Z" transform="translate(98.92856 0)" id="Ellipse-2-Copy" fill="#786E6E" fill-rule="evenodd" stroke="none" />
      <path d="M0 26.852C0 12.0221 7.59288 0 16.9592 0C26.3255 0 33.9184 12.0221 33.9184 26.852C33.9184 41.682 26.3255 53.7041 16.9592 53.7041C7.59288 53.7041 0 41.682 0 26.852Z" transform="translate(16.959167 48.05101)" id="Ellipse-3" fill="#786E6E" fill-rule="evenodd" stroke="none" />
      <path d="M0 26.852C0 12.0221 7.59288 0 16.9592 0C26.3255 0 33.9184 12.0221 33.9184 26.852C33.9184 41.682 26.3255 53.7041 16.9592 53.7041C7.59288 53.7041 0 41.682 0 26.852Z" transform="translate(115.887726 48.05101)" id="Ellipse-3-Copy" fill="#786E6E" fill-rule="evenodd" stroke="none" />
    </g>
    <g id="HEADNOSE" transform="translate(50.3266 37)">
      <path d="M0 49.4643C0 22.1459 22.1459 0 49.4643 0C76.7826 0 98.9286 22.1459 98.9286 49.4643C98.9286 65.0976 80.352 88.1016 80.352 88.1016C80.352 88.1016 61.1493 88.3613 49.4643 88.3613C22.1459 88.3613 18.9038 88.3613 18.9038 88.3613C18.9038 88.3613 0 76.7826 0 49.4643Z" id="Ellipse" fill="url(#gradient_1)" fill-rule="evenodd" stroke="none" />
    </g>
    <g id="EYES" transform="translate(72.9388 90.70407)">
      <g id="left-eye">
        <path d="M0 5.65306C0 2.53096 2.37278 0 5.29974 0C8.22671 0 10.5995 2.53096 10.5995 5.65306C10.5995 8.77516 8.22671 11.3061 5.29974 11.3061C2.37278 11.3061 0 8.77516 0 5.65306Z" id="Ellipse-4" fill="#0B0B0B" fill-rule="evenodd" stroke="none" />
        <path d="M0 1.69592C0 0.759289 0.711833 0 1.58992 0C2.46801 0 3.17985 0.759289 3.17985 1.69592C3.17985 2.63255 2.46801 3.39184 1.58992 3.39184C0.711833 3.39184 0 2.63255 0 1.69592Z" transform="translate(1.059967 2.2612305)" id="Ellipse-4-Copy" fill="#FFFFFF" fill-rule="evenodd" stroke="none" />
      </g>
      <g id="right-eye" transform="translate(44.517868 0)">
        <path d="M0 5.65306C0 2.53096 2.37278 0 5.29974 0C8.22671 0 10.5995 2.53096 10.5995 5.65306C10.5995 8.77516 8.22671 11.3061 5.29974 11.3061C2.37278 11.3061 0 8.77516 0 5.65306Z" id="Ellipse-4-Copy-2" fill="#0B0B0B" fill-rule="evenodd" stroke="none" />
        <path d="M0 1.69592C0 0.759289 0.711833 0 1.58992 0C2.46801 0 3.17985 0.759289 3.17985 1.69592C3.17985 2.63255 2.46801 3.39184 1.58992 3.39184C0.711833 3.39184 0 2.63255 0 1.69592Z" transform="translate(1.0599365 2.2612305)" id="Ellipse-4-Copy-3" fill="#FFFFFF" fill-rule="evenodd" stroke="none" />
      </g>
    </g>
    <g id="Group" transform="translate(50.32666 102.01019)">
      <path d="M33.2099 3.50651L34.9134 4.33734Q35.1029 4.42978 35.2866 4.53327Q35.4704 4.63675 35.6477 4.75092Q35.825 4.86509 35.9953 4.98954Q36.1655 5.11398 36.3281 5.24828Q36.4907 5.38257 36.6451 5.52624Q36.7994 5.66991 36.9451 5.82245Q37.0907 5.97499 37.227 6.13588Q37.3633 6.29676 37.4899 6.46542Q37.6165 6.63408 37.7329 6.80993Q37.8493 6.98577 37.9552 7.16819Q38.061 7.35061 38.1558 7.53897Q38.2506 7.72733 38.3342 7.92096Q38.4177 8.11459 38.4897 8.31282Q38.5616 8.51105 38.6217 8.71319Q38.6818 8.91533 38.7299 9.12066Q38.7779 9.326 38.8138 9.53382Q38.8496 9.74164 38.8731 9.95121Q38.8965 10.1608 38.9076 10.3714Q38.9187 10.582 38.9173 10.7928Q38.9158 11.0037 38.902 11.2142Q38.8881 11.4246 38.8618 11.6338Q38.8355 11.8431 38.7969 12.0504Q38.7583 12.2577 38.7075 12.4624Q38.6567 12.6671 38.5939 12.8684Q38.5311 13.0697 38.4565 13.2669Q38.3819 13.4642 38.2958 13.6567Q38.2097 13.8492 38.1123 14.0363Q38.015 14.2233 37.9068 14.4043Q37.7985 14.5853 37.6798 14.7596Q37.561 14.9338 37.4322 15.1008Q37.3033 15.2678 37.1649 15.4268Q37.0264 15.5858 36.8787 15.7364L20.7736 32.1624Q20.625 32.314 20.4636 32.4519Q20.3022 32.5898 20.1293 32.713Q19.9564 32.8362 19.7733 32.9437Q19.5903 33.0511 19.3985 33.1421Q19.2066 33.2331 19.0075 33.3068Q18.8085 33.3805 18.6037 33.4364Q18.3989 33.4923 18.1899 33.53Q17.981 33.5677 17.7696 33.5868Q17.5582 33.606 17.3459 33.6064Q17.1336 33.6069 16.9221 33.5887Q16.7106 33.5705 16.5015 33.5337Q16.2924 33.4969 16.0873 33.4419Q15.8823 33.3869 15.6829 33.314Q15.4835 33.2412 15.2913 33.151Q15.0991 33.0609 14.9155 32.9542Q14.732 32.8475 14.5586 32.7251Q14.3851 32.6027 14.2231 32.4655Q14.0611 32.3283 13.9119 32.1773Q13.7626 32.0264 13.6271 31.8629Q13.4917 31.6994 13.3712 31.5246Q13.2507 31.3499 13.146 31.1652Q13.0414 30.9805 12.9534 30.7873Q12.8654 30.5941 12.7947 30.3939Q12.7241 30.1937 12.6713 29.9881Q12.6185 29.7824 12.5841 29.5729Q12.5496 29.3635 12.5337 29.1518Q12.5178 28.9401 12.5206 28.7278Q12.5234 28.5155 12.5449 28.3043Q12.5664 28.0931 12.6063 27.8846Q12.6463 27.6761 12.7045 27.4719Q12.7626 27.2678 12.8386 27.0695Q12.9145 26.8713 13.0075 26.6805L22.5139 7.18944Q22.6 7.01295 22.6946 6.8409Q22.7893 6.66884 22.8923 6.50164Q22.9952 6.33443 23.1063 6.17248Q23.2173 6.01053 23.3362 5.85423Q23.455 5.69792 23.5814 5.54764Q23.7078 5.39735 23.8414 5.25345Q23.975 5.10954 24.1155 4.97237Q24.256 4.83519 24.4031 4.70508Q24.5502 4.57496 24.7034 4.45222Q24.8567 4.32948 25.0158 4.21441Q25.1749 4.09933 25.3395 3.99221Q25.5041 3.88508 25.6737 3.78615Q25.8433 3.68723 26.0176 3.59675Q26.1919 3.50627 26.3704 3.42445Q26.5489 3.34263 26.7312 3.26967Q26.9135 3.1967 27.0992 3.13277Q27.2848 3.06884 27.4734 3.0141Q27.662 2.95936 27.853 2.91393Q28.0441 2.86851 28.2371 2.83251Q28.4301 2.79652 28.6247 2.77004Q28.8193 2.74356 29.0149 2.72666Q29.2105 2.70976 29.4068 2.70247Q29.603 2.69519 29.7994 2.69755Q29.9957 2.6999 30.1917 2.71189Q30.3877 2.72388 30.5829 2.74547Q30.778 2.76706 30.9719 2.7982Q31.1658 2.82934 31.3579 2.86996Q31.55 2.91057 31.7399 2.96057Q31.9298 3.01056 32.117 3.06981Q32.3043 3.12907 32.4883 3.19743Q32.6724 3.2658 32.8529 3.34312Q33.0334 3.42043 33.2099 3.50651L33.2099 3.50651Z" transform="translate(0 8.639954)" id="Rectangle-2" fill="#FFFFFF" fill-rule="evenodd" stroke="#6D6666" stroke-width="1" />
      <path d="M10.5938 3.50652L8.8904 4.33734Q8.70086 4.42978 8.51712 4.53327Q8.33337 4.63676 8.15606 4.75092Q7.97875 4.86509 7.8085 4.98954Q7.63825 5.11398 7.47566 5.24828Q7.31306 5.38257 7.15869 5.52624Q7.00431 5.66991 6.8587 5.82245Q6.71309 5.97499 6.57675 6.13588Q6.4404 6.29676 6.31381 6.46542Q6.18722 6.63408 6.07081 6.80993Q5.95441 6.98577 5.84861 7.16819Q5.7428 7.35061 5.64796 7.53897Q5.55312 7.72733 5.46958 7.92096Q5.38604 8.11459 5.3141 8.31282Q5.24215 8.51105 5.18204 8.71319Q5.12194 8.91533 5.07388 9.12066Q5.02583 9.326 4.99 9.53382Q4.95417 9.74164 4.93068 9.95121Q4.9072 10.1608 4.89614 10.3714Q4.88509 10.582 4.8865 10.7928Q4.88791 11.0037 4.90178 11.2142Q4.91565 11.4246 4.94194 11.6338Q4.96822 11.8431 5.00683 12.0504Q5.04544 12.2577 5.09623 12.4624Q5.14703 12.6671 5.20983 12.8684Q5.27264 13.0697 5.34723 13.2669Q5.42182 13.4642 5.50794 13.6567Q5.59407 13.8492 5.69141 14.0363Q5.78876 14.2233 5.897 14.4043Q6.00524 14.5853 6.12398 14.7596Q6.24273 14.9339 6.37156 15.1008Q6.5004 15.2678 6.63888 15.4268Q6.77737 15.5858 6.92501 15.7364L23.0301 32.1624Q23.1787 32.314 23.3401 32.4519Q23.5015 32.5898 23.6744 32.713Q23.8473 32.8362 24.0304 32.9436Q24.2135 33.0511 24.4053 33.1421Q24.5971 33.233 24.7962 33.3068Q24.9953 33.3805 25.2001 33.4364Q25.4049 33.4923 25.6138 33.53Q25.8227 33.5677 26.0341 33.5868Q26.2456 33.606 26.4579 33.6064Q26.6701 33.6069 26.8817 33.5887Q27.0932 33.5705 27.3023 33.5337Q27.5113 33.4969 27.7164 33.4419Q27.9214 33.3869 28.1208 33.314Q28.3202 33.2412 28.5124 33.151Q28.7047 33.0609 28.8882 32.9542Q29.0717 32.8475 29.2452 32.7251Q29.4186 32.6027 29.5806 32.4655Q29.7426 32.3283 29.8919 32.1773Q30.0412 32.0264 30.1766 31.8629Q30.312 31.6994 30.4325 31.5246Q30.553 31.3499 30.6577 31.1652Q30.7623 30.9805 30.8503 30.7873Q30.9384 30.5941 31.009 30.3939Q31.0797 30.1937 31.1324 29.988Q31.1852 29.7824 31.2197 29.5729Q31.2541 29.3635 31.27 29.1518Q31.2859 28.9401 31.2831 28.7278Q31.2803 28.5155 31.2588 28.3043Q31.2374 28.0931 31.1974 27.8846Q31.1574 27.6761 31.0993 27.4719Q31.0411 27.2678 30.9652 27.0695Q30.8893 26.8713 30.7962 26.6804L21.2898 7.18945Q21.2037 7.01296 21.1091 6.8409Q21.0145 6.66885 20.9115 6.50164Q20.8085 6.33444 20.6975 6.17249Q20.5864 6.01054 20.4676 5.85423Q20.3487 5.69793 20.2223 5.54764Q20.096 5.39735 19.9624 5.25345Q19.8288 5.10955 19.6882 4.97237Q19.5477 4.8352 19.4007 4.70508Q19.2536 4.57497 19.1003 4.45222Q18.9471 4.32948 18.7879 4.21441Q18.6288 4.09934 18.4643 3.99221Q18.2997 3.88508 18.1301 3.78616Q17.9604 3.68723 17.7862 3.59675Q17.6119 3.50627 17.4334 3.42445Q17.2549 3.34263 17.0726 3.26967Q16.8903 3.1967 16.7046 3.13277Q16.5189 3.06884 16.3304 3.0141Q16.1418 2.95936 15.9507 2.91393Q15.7597 2.86851 15.5667 2.83251Q15.3736 2.79652 15.1791 2.77004Q14.9845 2.74356 14.7888 2.72666Q14.5932 2.70976 14.397 2.70248Q14.2008 2.69519 14.0044 2.69755Q13.8081 2.69991 13.6121 2.71189Q13.4161 2.72388 13.2209 2.74547Q13.0257 2.76706 12.8318 2.7982Q12.6379 2.82934 12.4458 2.86996Q12.2537 2.91058 12.0638 2.96057Q11.8739 3.01056 11.6867 3.06982Q11.4995 3.12907 11.3154 3.19744Q11.1313 3.2658 10.9508 3.34312Q10.7703 3.42043 10.5938 3.50651L10.5938 3.50652Z" transform="translate(53.70398 8.639862)" id="Rectangle-2-Copy" fill="#FFFFFF" fill-rule="evenodd" stroke="#6D6666" stroke-width="1" />
      <path d="M7.999 0L14.6132 0Q14.8096 0 15.0057 0.00963514Q15.2019 0.0192703 15.3973 0.0385174Q15.5927 0.0577644 15.7869 0.0865771Q15.9812 0.11539 16.1738 0.153699Q16.3664 0.192007 16.5568 0.23972Q16.7473 0.287433 16.9352 0.344434Q17.1231 0.401436 17.308 0.467589Q17.4929 0.533742 17.6743 0.608888Q17.8557 0.684033 18.0333 0.76799Q18.2108 0.851946 18.3839 0.944512Q18.5571 1.03708 18.7255 1.13803Q18.894 1.23898 19.0572 1.34807Q19.2205 1.45717 19.3782 1.57414Q19.536 1.69112 19.6877 1.81569Q19.8395 1.94026 19.985 2.07213Q20.1305 2.204 20.2694 2.34285Q20.4082 2.4817 20.5401 2.6272Q20.672 2.7727 20.7965 2.92449Q20.9211 3.07628 21.0381 3.234Q21.1551 3.39172 21.2642 3.55499Q21.3733 3.71826 21.4742 3.88669Q21.5752 4.05512 21.6677 4.2283Q21.7603 4.40148 21.8442 4.57899Q21.9282 4.7565 22.0033 4.93791Q22.0785 5.11933 22.1446 5.30422Q22.2108 5.4891 22.2678 5.67701Q22.3248 5.86492 22.3725 6.0554Q22.4202 6.24588 22.4585 6.43847Q22.4968 6.63106 22.5257 6.8253Q22.5545 7.01954 22.5737 7.21496Q22.593 7.41038 22.6026 7.60651Q22.6122 7.80264 22.6122 7.999L22.6122 51.4439Q22.6122 51.6104 22.6041 51.7767Q22.5959 51.943 22.5796 52.1087Q22.5633 52.2744 22.5388 52.4391Q22.5144 52.6038 22.4819 52.7671Q22.4494 52.9304 22.409 53.0919Q22.3685 53.2534 22.3202 53.4128Q22.2718 53.5721 22.2157 53.7289Q22.1597 53.8857 22.0959 54.0395Q22.0322 54.1933 21.961 54.3438Q21.8898 54.4944 21.8113 54.6412Q21.7329 54.788 21.6473 54.9309Q21.5617 55.0737 21.4691 55.2121Q21.3766 55.3506 21.2775 55.4843Q21.1783 55.618 21.0726 55.7468Q20.967 55.8755 20.8552 55.9988Q20.7434 56.1222 20.6256 56.2399Q20.5079 56.3577 20.3845 56.4695Q20.2612 56.5813 20.1324 56.6869Q20.0037 56.7926 19.87 56.8918Q19.7363 56.9909 19.5978 57.0835Q19.4594 57.176 19.3166 57.2616Q19.1737 57.3472 19.0269 57.4257Q18.88 57.5041 18.7295 57.5753Q18.579 57.6465 18.4252 57.7102Q18.2713 57.774 18.1146 57.8301Q17.9578 57.8862 17.7985 57.9345Q17.6391 57.9828 17.4776 58.0233Q17.3161 58.0637 17.1528 58.0962Q16.9895 58.1287 16.8248 58.1531Q16.6601 58.1776 16.4944 58.1939Q16.3287 58.2102 16.1624 58.2184Q15.9961 58.2265 15.8296 58.2265L14.1755 58.2265Q13.8903 58.2265 13.6058 58.2062Q13.3212 58.1859 13.0389 58.1454Q12.7565 58.1049 12.4778 58.0443Q12.1991 57.9838 11.9253 57.9035Q11.6516 57.8233 11.3843 57.7238Q11.117 57.6242 10.8575 57.5059Q10.5979 57.3876 10.3475 57.2511Q10.097 57.1146 9.8569 56.9606Q9.61681 56.8066 9.38829 56.6359Q9.15977 56.4651 8.94399 56.2786Q8.72822 56.092 8.52627 55.8906Q8.32433 55.6891 8.13725 55.4738Q7.95017 55.2585 7.7789 55.0304Q7.60764 54.8023 7.45305 54.5626Q7.29847 54.3229 7.16135 54.0727Q7.02423 53.8226 6.90528 53.5634L1.82205 42.4848Q1.37315 41.5064 1.03186 40.4855Q0.690565 39.4646 0.460822 38.413Q0.231078 37.3614 0.115539 36.2912Q0 35.221 0 34.1446L0 7.999Q0 7.80264 0.00963514 7.60651Q0.0192703 7.41038 0.0385174 7.21496Q0.0577644 7.01954 0.0865771 6.8253Q0.11539 6.63106 0.153699 6.43847Q0.192007 6.24588 0.23972 6.0554Q0.287433 5.86492 0.344434 5.67701Q0.401436 5.4891 0.467589 5.30422Q0.533742 5.11933 0.608888 4.93791Q0.684033 4.7565 0.76799 4.57899Q0.851946 4.40148 0.944512 4.2283Q1.03708 4.05512 1.13803 3.88669Q1.23898 3.71826 1.34807 3.55499Q1.45717 3.39172 1.57414 3.234Q1.69112 3.07628 1.81569 2.92449Q1.94026 2.7727 2.07213 2.6272Q2.204 2.4817 2.34285 2.34285Q2.4817 2.204 2.6272 2.07213Q2.7727 1.94026 2.92449 1.81569Q3.07628 1.69112 3.234 1.57414Q3.39172 1.45717 3.55499 1.34807Q3.71826 1.23898 3.88669 1.13803Q4.05512 1.03708 4.2283 0.944512Q4.40148 0.851946 4.57899 0.76799Q4.7565 0.684033 4.93791 0.608888Q5.11933 0.533742 5.30422 0.467589Q5.4891 0.401436 5.67701 0.344434Q5.86492 0.287433 6.0554 0.23972Q6.24588 0.192007 6.43847 0.153699Q6.63106 0.11539 6.8253 0.0865771Q7.01954 0.0577644 7.21496 0.0385174Q7.41038 0.0192703 7.60651 0.00963514Q7.80264 0 7.999 0L7.999 0Z" transform="translate(36.744812 0)" id="Rectangle" fill="#4E13BD" fill-rule="evenodd" stroke="none" />
    </g>
  </g>
</svg>